<svg xmlns="http://www.w3.org/2000/svg" viewBox="0 0 96 96" role="img" aria-labelledby="title">
  <title id="title">Mail Archive</title>
  <defs>
    <linearGradient id="folder" x1="18" x2="78" y1="22" y2="76" gradientUnits="userSpaceOnUse">
      <stop offset="0" stop-color="#74d6f4"/>
      <stop offset="1" stop-color="#2563c9"/>
    </linearGradient>
    <linearGradient id="envelope" x1="23" x2="73" y1="38" y2="70" gradientUnits="userSpaceOnUse">
      <stop offset="0" stop-color="#ffffff"/>
      <stop offset="1" stop-color="#dbeafe"/>
    </linearGradient>
    <filter id="shadow" x="-20%" y="-20%" width="140%" height="140%">
      <feDropShadow dx="0" dy="4" stdDeviation="4" flood-color="#12315f" flood-opacity=".18"/>
    </filter>
  </defs>
  <rect width="96" height="96" rx="22" fill="#f8fbff"/>
  <path fill="#b9e8f7" d="M13 30a8 8 0 0 1 8-8h17l7 8h30a8 8 0 0 1 8 8v8H13V30Z"/>
  <path fill="url(#folder)" d="M13 39h70v28a9 9 0 0 1-9 9H22a9 9 0 0 1-9-9V39Z"/>
  <g filter="url(#shadow)">
    <rect width="50" height="34" x="23" y="36" fill="url(#envelope)" rx="7"/>
    <path fill="#3b82f6" d="M25.7 39.8A7 7 0 0 1 30 38h36a7 7 0 0 1 4.3 1.8L48 55 25.7 39.8Z" opacity=".92"/>
    <path fill="#1d4ed8" d="M23 64.2 39.9 52.6 48 58.1l8.1-5.5L73 64.2V63a7 7 0 0 1-7 7H30a7 7 0 0 1-7-7v1.2Z" opacity=".16"/>
    <path fill="#2563eb" d="m23 43.7 19.6 13.4L23 68V43.7Z" opacity=".36"/>
    <path fill="#1e40af" d="M73 43.7 53.4 57.1 73 68V43.7Z" opacity=".32"/>
  </g>
  <path fill="#163b7a" d="M34 73h28v5H34z" opacity=".18"/>
</svg>
