<svg xmlns="http://www.w3.org/2000/svg" viewBox="0 0 64 64" fill="none">
  <rect width="64" height="64" rx="16" fill="#16324F"/>
  <path d="M20 30C20 23.3726 25.3726 18 32 18C38.6274 18 44 23.3726 44 30V34H46C47.1046 34 48 34.8954 48 36V46C48 47.1046 47.1046 48 46 48H18C16.8954 48 16 47.1046 16 46V36C16 34.8954 16.8954 34 18 34H20V30ZM24 34H40V30C40 25.5817 36.4183 22 32 22C27.5817 22 24 25.5817 24 30V34ZM32 38C33.6569 38 35 39.3431 35 41C35 42.3062 34.1652 43.4175 33 43.8293V46H31V43.8293C29.8348 43.4175 29 42.3062 29 41C29 39.3431 30.3431 38 32 38Z" fill="#F4F7FB"/>
</svg>
